<?xml version="1.0" encoding="UTF-8" standalone="no"?>
<svg
   xmlns="http://www.w3.org/2000/svg"
   width="80px" height="80px"
   viewBox="0 0 2560 2560">
  <path fill="#00BFFF"
     d="M 0,1810.1553 219.82044,1280.0001 0.13063863,749.84488 530.28555,530.28549 749.71426,1.25e-5 1280,219.82035 1810.1553,0.26115 2029.7145,530.28549 2560,749.71425 2340.1796,1280.0001 2559.7386,1810.1553 2029.5837,2029.7145 1810.0244,2560 1280,2340.1796 749.84499,2559.739 530.28576,2029.7145 0,1810.286 Z M 341.42045,891.16725 502.4652,1280.0001 341.42045,1668.8329 730.12251,1829.7471 891.16726,2218.5799 1280,2057.535 l 388.8328,161.0449 160.9142,-388.8328 388.8326,-160.9142 -161.045,-388.8328 161.045,-388.83285 -388.702,-161.045 L 1668.9632,341.42026 1280,502.46518 891.16726,341.42026 730.12251,730.12225 Z" />
</svg>
